<svg xmlns="http://www.w3.org/2000/svg" width="48" height="48" id="farm"><g transform="translate(0 -1004.362)"><circle cx="24" cy="1028.362" r="24" fill="#ffa40b" fill-rule="evenodd"></circle><path style="line-height:normal;text-indent:0;text-align:start;text-decoration-line:none;text-decoration-style:solid;text-decoration-color:#000;text-transform:none;block-progression:tb;isolation:auto;mix-blend-mode:normal" fill="#fff" d="M17.505 1015.378c-.834 0-1.494.713-1.498 1.549-.012.22.003.4.012.598-3.37.545-6.014 2.899-6.014 5.855 0 .772.45 1.437 1.094 1.77-.379 2.99.612 6.004 2.672 7.781.583.5 1.245.847 1.936 1.09.285.772.952 1.355 1.798 1.355.845 0 1.509-.582 1.795-1.351a5.971 5.971 0 0 0 1.784-.965c2.155-1.748 3.221-4.835 2.832-7.912a1.998 1.998 0 0 0 1.09-1.768c0-2.952-2.648-5.266-6.014-5.818.006-.2.013-.405.013-.627 0-.695-.725-1.372-1.357-1.56h-.143zm-.002 1.002h.002c.271 0 .5.225.5.555 0 .313-.021.53-.021 1.006a.5.5 0 0 0 .445.496c3.209.354 5.576 2.482 5.576 4.943 0 .563-.437 1-1 1h-11c-.562 0-1-.437-1-1 0-2.393 2.234-4.47 5.311-4.91h.004c.086-.013.173-.024.26-.033a.5.5 0 0 0 .447-.51c-.009-.34-.04-.69-.023-.96a.522.522 0 0 0 .002-.034c0-.328.228-.55.498-.552zm16.477 7.225a1.582 1.582 0 0 0-1.207.782c-.12.183-.197.346-.287.52-3.192-1.212-6.657-.497-8.135 2.063-.386.669-.33 1.47.063 2.08-1.823 2.4-2.474 5.508-1.578 8.077a6.02 6.02 0 0 0 1.13 1.912c-.139.811.148 1.65.881 2.074.732.422 1.6.25 2.233-.273a5.991 5.991 0 0 0 2.023.055h.002c2.741-.436 5.21-2.578 6.41-5.438a1.997 1.997 0 0 0 1.826-.986c1.476-2.556.34-5.882-2.298-8.043.105-.17.215-.347.326-.54.347-.6.166-1.293-.285-1.773-.031-.135-.266-.263-.386-.333l.285.15c-.271-.157-.711-.354-1.003-.326zm.178.992a.52.52 0 0 1 .185.061h.002c.235.135.321.443.157.729-.157.27-.284.449-.522.86a.5.5 0 0 0 .137.653c2.602 1.911 3.59 4.937 2.36 7.069a.989.989 0 0 1-1.368.367l-9.525-5.5a.989.989 0 0 1-.368-1.367c1.197-2.073 4.17-2.753 7.055-1.596h.004c.079.03.16.065.242.101a.5.5 0 0 0 .64-.218c.163-.299.311-.618.462-.844l.017-.027a.54.54 0 0 1 .522-.29zm-22.08.783h10.857c.31 2.725-.676 5.44-2.48 6.902a4.962 4.962 0 0 1-1.623.881l-.29.092-.052.3a.994.994 0 0 1-.985.823.994.994 0 0 1-.984-.824l-.053-.299-.289-.092a5.006 5.006 0 0 1-1.756-.99c-1.729-1.492-2.645-4.146-2.345-6.793zm1.398 1a.5.5 0 0 0-.47.572c.249 1.877 1.09 3.607 2.43 4.76.504.436 1.159-.321.653-.758-1.119-.964-1.87-2.471-2.091-4.134a.5.5 0 0 0-.522-.44zm11.672 3.36 9.4 5.427c-1.094 2.515-3.305 4.375-5.6 4.74a4.974 4.974 0 0 1-1.845-.048l-.297-.064-.195.232a.993.993 0 0 1-1.264.223.995.995 0 0 1-.441-1.207l.105-.287-.207-.223a5.012 5.012 0 0 1-1.023-1.735c-.752-2.158-.218-4.915 1.367-7.058zm.469 1.51c-.2 0-.379.128-.453.314-.723 1.75-.859 3.671-.276 5.34.205.66 1.196.313.944-.33-.488-1.395-.385-3.077.255-4.627a.5.5 0 0 0-.47-.698z" color="#000" font-family="sans-serif" font-weight="400" overflow="visible"></path></g></svg>